<?xml version="1.0" standalone="no"?>
<!DOCTYPE svg PUBLIC "-//W3C//DTD SVG 20010904//EN"
 "http://www.w3.org/TR/2001/REC-SVG-20010904/DTD/svg10.dtd">
<svg version="1.0" xmlns="http://www.w3.org/2000/svg"
 width="802.000000pt" height="802.000000pt" viewBox="0 0 802.000000 802.000000"
 preserveAspectRatio="xMidYMid meet">
<metadata>
Created by potrace 1.14, written by Peter Selinger 2001-2017
</metadata>
<g transform="translate(0.000000,802.000000) scale(0.100000,-0.100000)"
fill="#000000" stroke="none">
<path d="M3420 6864 c-89 -74 -340 -339 -393 -414 -12 -18 -19 -19 -63 -11
-43 8 -75 12 -199 26 -145 17 -272 24 -296 18 -10 -3 -19 -15 -21 -28 -6 -27
33 -170 64 -235 11 -25 26 -61 33 -81 23 -65 99 -225 139 -293 20 -34 22 -45
14 -80 -16 -71 -11 -380 8 -521 9 -67 10 -66 -20 -175 -14 -52 -25 -96 -26
-97 0 -2 0 -4 -1 -5 0 -2 -2 -12 -3 -23 -9 -59 -17 -112 -21 -125 -11 -38 -19
-157 -19 -277 -1 -73 -4 -133 -8 -133 -5 0 -10 0 -13 0 -15 1 -72 -36 -97 -64
-48 -51 -84 -146 -87 -226 -1 -24 -3 -23 -37 15 -19 22 -46 54 -60 70 -13 17
-31 37 -38 45 -7 8 -39 50 -70 92 -47 63 -55 80 -47 95 15 26 35 77 33 86 -1
4 3 7 10 7 6 0 8 3 5 6 -3 4 -2 15 4 25 26 49 93 301 124 464 14 77 15 329 1
395 -2 14 -7 41 -10 60 -13 89 -83 265 -141 355 -96 150 -262 328 -400 430
-22 17 -42 32 -45 35 -19 21 -174 114 -268 162 -111 55 -302 123 -372 132 -19
3 -35 5 -35 6 0 6 -59 11 -170 15 -110 4 -143 2 -210 -15 -148 -38 -426 -187
-566 -303 -68 -57 -115 -129 -103 -160 8 -21 49 -47 82 -52 73 -10 117 -19
237 -46 72 -17 166 -43 210 -57 l80 -27 -2 -35 c-14 -269 -8 -328 34 -331 117
-8 288 31 344 78 14 12 20 10 43 -19 35 -44 31 -38 110 -155 l70 -103 -27 -82
c-15 -46 -31 -89 -35 -95 -8 -13 -79 -30 -157 -40 -22 -2 -60 -7 -85 -11 -56
-9 -230 -8 -290 2 -110 18 -115 21 -205 145 -46 64 -93 129 -106 144 -24 31
-56 47 -77 39 -14 -5 -41 -52 -48 -83 -2 -10 -7 -29 -10 -41 -3 -13 -7 -95 -9
-183 -5 -177 2 -221 46 -320 24 -54 110 -128 210 -179 137 -71 173 -91 266
-152 74 -49 350 -257 363 -273 4 -6 92 -70 148 -110 11 -8 23 -13 26 -12 3 1
19 -5 35 -13 21 -11 54 -14 127 -12 55 2 110 7 124 10 14 4 41 9 60 12 19 3
41 11 48 16 6 6 12 8 12 5 0 -3 21 2 48 10 65 20 92 25 92 16 0 -8 28 -42 89
-108 65 -71 230 -213 386 -333 48 -37 104 -70 109 -65 3 4 6 1 6 -5 0 -16 69
-27 83 -13 19 19 31 13 46 -21 26 -64 73 -152 115 -217 15 -24 30 -58 32 -75
3 -17 10 -53 16 -81 6 -27 11 -52 10 -55 0 -3 4 -11 10 -17 6 -7 8 -13 5 -13
-21 0 137 -371 197 -461 17 -27 17 -27 -16 -50 -96 -69 -197 -201 -232 -307
-25 -75 -27 -162 -6 -226 11 -36 11 -41 -6 -52 -11 -7 -38 -27 -61 -44 -24
-18 -47 -29 -54 -24 -7 4 -28 9 -48 11 -28 3 -41 -1 -56 -17 -18 -20 -20 -36
-18 -184 1 -88 2 -186 3 -216 3 -82 28 -198 55 -259 14 -29 22 -58 18 -65 -4
-6 -8 -16 -9 -22 -1 -6 -5 -21 -8 -32 -7 -22 5 -34 39 -40 28 -4 171 18 239
36 20 6 36 8 36 5 0 -3 7 0 15 7 8 7 15 10 15 6 0 -3 18 1 40 10 42 17 110 12
110 -7 0 -5 -7 -21 -16 -34 -10 -15 -14 -34 -10 -49 6 -25 6 -25 114 -21 110
4 227 13 265 21 12 2 38 7 57 11 19 4 38 6 43 5 4 -1 7 2 7 6 0 5 36 9 80 10
88 2 186 13 198 22 1 2 5 3 10 4 43 10 112 77 112 110 0 8 5 18 10 21 6 4 8
10 5 15 -3 5 -1 11 3 14 8 5 11 24 15 103 1 18 4 33 7 33 7 0 3 88 -5 100 -3
5 -1 10 5 10 6 0 8 5 5 10 -3 6 -8 36 -10 68 -2 31 -8 76 -13 100 -11 47 -9
48 33 22 167 -104 386 -202 580 -260 39 -11 84 -25 101 -30 17 -6 38 -10 47
-10 21 0 67 -70 91 -137 74 -201 87 -223 138 -223 31 0 112 66 129 105 5 11
17 34 28 50 10 17 25 53 35 81 11 34 24 54 36 57 11 3 20 2 20 -1 0 -8 125 -6
146 2 7 3 14 1 14 -4 0 -5 6 -7 13 -5 6 3 54 7 105 9 84 4 92 3 92 -14 0 -10
10 -36 21 -58 18 -34 30 -42 73 -55 40 -11 65 -28 116 -79 72 -71 138 -119
187 -136 28 -9 36 -8 60 11 40 31 54 47 87 95 l29 42 156 -6 c169 -7 181 -7
196 -3 6 2 42 -3 80 -10 39 -7 84 -15 100 -18 64 -9 75 -12 83 -17 5 -3 47 -8
95 -12 73 -5 87 -4 87 8 0 42 -130 261 -190 320 l-38 38 -2 97 c-1 109 -6 183
-13 228 -3 17 -8 57 -12 90 -6 54 -4 63 15 80 34 31 109 147 125 195 20 58 31
72 62 85 42 18 74 51 67 70 -5 12 4 16 76 32 130 29 372 23 530 -13 14 -3 30
-6 35 -7 6 -2 16 -6 23 -10 6 -5 12 -6 12 -3 0 3 46 -11 103 -30 105 -37 239
-98 339 -156 55 -31 58 -32 71 -14 10 14 12 31 6 62 -19 103 -103 212 -243
314 -44 33 -86 64 -92 69 -71 59 -390 223 -504 259 -19 7 -62 20 -95 31 -54
17 -158 42 -240 56 -76 13 -170 19 -285 18 -182 -1 -305 -22 -510 -88 -58 -19
-131 -41 -163 -51 -32 -9 -78 -30 -103 -45 -24 -16 -48 -29 -52 -29 -7 0 -101
96 -132 136 -33 42 -134 199 -164 257 -19 34 -42 78 -53 97 -27 48 -89 212
-87 230 0 8 2 28 2 43 2 28 3 28 56 24 40 -4 67 0 109 18 94 38 221 123 309
207 17 17 19 17 50 -2 126 -73 402 -95 628 -50 116 24 168 59 234 160 34 51
96 194 111 255 4 18 6 24 16 57 6 18 12 44 15 58 3 14 10 45 15 70 19 81 48
257 56 335 3 28 6 59 8 70 1 11 3 33 4 48 1 25 3 27 20 15 18 -13 79 -63 169
-141 47 -40 58 -40 73 1 14 36 14 204 0 229 -5 11 -8 22 -6 25 2 2 -4 32 -14
65 l-19 62 37 -5 c20 -2 41 0 48 4 16 10 22 60 11 101 -5 18 -11 43 -14 54 -2
11 -15 37 -29 58 -14 21 -25 41 -25 45 0 7 -66 71 -120 115 -27 23 -40 44 -50
82 -7 29 -21 70 -31 91 -11 22 -19 43 -19 48 0 7 -69 158 -93 203 -97 183
-176 306 -272 425 -242 300 -454 367 -684 215 -67 -44 -190 -165 -235 -231
-124 -181 -173 -265 -244 -425 -52 -115 -117 -312 -128 -388 -2 -19 -7 -37 -9
-41 -3 -5 -7 -27 -10 -50 -4 -34 -16 -52 -65 -100 -64 -64 -128 -154 -150
-210 -8 -19 -17 -37 -20 -40 -4 -3 -11 -24 -17 -46 -16 -64 8 -98 62 -88 54
10 95 11 95 2 0 -5 -10 -28 -21 -51 -12 -23 -21 -42 -20 -42 1 0 -1 -8 -5 -18
-7 -19 0 -104 9 -113 11 -12 44 -10 81 2 21 8 42 14 46 14 4 0 17 -30 30 -67
30 -91 53 -143 62 -143 5 0 8 -6 8 -13 0 -20 43 -57 66 -57 16 0 53 -37 77
-77 6 -9 -39 -98 -93 -183 -5 -8 -23 -38 -39 -67 -36 -61 -51 -73 -51 -40 0
71 -65 260 -114 332 -37 53 -120 130 -177 164 -42 25 -59 42 -69 70 -19 56
-37 94 -116 256 -67 136 -95 188 -143 266 -9 15 -31 53 -50 85 -19 33 -38 61
-43 62 -4 2 -8 10 -8 18 0 8 -4 14 -10 14 -5 0 -10 5 -10 10 0 6 -12 28 -27
49 -16 21 -35 49 -43 61 -16 24 -114 158 -127 175 -5 6 -29 36 -53 68 -25 31
-48 57 -52 57 -5 0 -8 5 -8 11 0 6 -6 16 -12 23 -7 7 -35 39 -63 71 -27 33
-60 70 -72 83 -29 31 -29 32 5 59 93 75 352 332 395 393 24 34 21 47 -10 55
-76 20 -381 20 -699 1 -92 -6 -81 -15 -129 109 -13 33 -29 74 -35 90 -7 17
-14 35 -15 40 -2 6 -12 32 -24 57 -11 26 -21 49 -21 53 0 3 -14 35 -32 70 -38
80 -52 82 -128 19z"/>
</g>
</svg>
